<svg width="44" height="48" viewBox="0 0 44 48" fill="none" xmlns="http://www.w3.org/2000/svg">
<g clip-path="url(#clip0_3976_92450)">
<path d="M22.001 0.0714111C15.5354 0.0714111 10.2813 5.34072 10.2813 11.8251C10.2813 17.5294 14.3577 22.2999 19.745 23.3533C20.4731 23.505 21.2331 23.5768 22.001 23.5768C22.4586 23.5768 22.9022 23.5529 23.3459 23.497C29.1769 22.8306 33.7187 17.8466 33.7187 11.8251C33.7187 5.34072 28.4646 0.0714111 22.001 0.0714111ZM22.001 18.926C18.0918 18.926 14.9187 15.7357 14.9187 11.8251C14.9187 7.91452 18.0918 4.72221 22.001 4.72221C25.9102 4.72221 29.0814 7.90455 29.0814 11.8251C29.0814 15.7457 25.9023 18.926 22.001 18.926Z" fill="#E36CF4"/>
<path d="M41.8494 35.433C39.2373 28.9806 34.8944 25.5768 29.2763 25.5768C28.1125 25.5768 26.9885 25.6726 25.9202 25.8621C27.4003 26.9734 28.9918 28.4339 30.462 30.3214C33.4939 30.7743 35.8593 33.0528 37.5125 37.0911C38.8315 40.3213 39.2513 43.6293 39.3467 44.597H43.3594L44 44.5511C43.9861 44.3595 43.6598 39.9242 41.8494 35.433ZM28.8247 35.2894C28.397 33.8369 27.5674 32.3545 26.4195 31.0037C26.3718 30.9578 26.332 30.9179 26.2922 30.87C24.631 29.1562 22.9301 27.997 21.6091 27.2428C21.6011 27.2428 21.6011 27.2508 21.5932 27.2508C19.5122 26.2113 17.0831 25.5768 14.4094 25.5768C8.77533 25.5768 4.47818 28.9965 1.98544 35.473C0.252656 39.9721 0.0159154 44.4074 0 44.597H4.65325C4.80246 42.7315 6.10752 30.2276 14.4094 30.2276C15.414 30.2276 16.355 30.3453 17.2264 30.5608C16.0944 31.8537 15.1833 33.37 14.5586 35.0919C13.6017 37.7016 13.546 41.6301 15.5553 44.5271C15.5712 44.5511 15.5891 44.575 15.605 44.597C17.0553 46.6241 19.3232 47.7394 22.005 47.7394C24.3784 47.7394 26.332 46.8037 27.6529 45.018C27.7544 44.8803 27.8519 44.7406 27.9434 44.597C29.6642 41.9035 29.6443 38.0388 28.8247 35.2894ZM18.9114 36.694C19.3292 35.5428 20.121 34.0204 21.5932 32.7415C23.0653 33.9486 24.0222 35.4011 24.3863 36.6142C24.8996 38.352 24.9155 40.9158 23.9347 42.2407C23.6423 42.6377 23.1588 43.0906 22.005 43.0906C20.7855 43.0906 19.9479 42.7015 19.361 41.8596C18.3643 40.431 18.3882 38.1305 18.9114 36.694Z" fill="#051BA3"/>
</g>
<defs>
<clipPath id="clip0_3976_92450">
<rect width="44" height="47.668" fill="white" transform="translate(0 0.0714111)"/>
</clipPath>
</defs>
</svg>
