<?xml version="1.0" encoding="UTF-8"?>
<svg id="Layer_1" data-name="Layer 1" xmlns="http://www.w3.org/2000/svg" viewBox="0 0 993.5 913.05">
  <defs>
    <style>
      .cls-1 {
        fill: none;
        stroke: #001ba6;
        stroke-miterlimit: 10;
        stroke-width: 50px;
      }
    </style>
  </defs>
  <path class="cls-1" d="m776.15,21.69c66.86,38.34,124.8,88.32,158.58,140.09,35.14,53.86,44.6,109.06,20.09,147.46-24.52,38.4-84.36,58.24-157.33,47.61-72.97-10.63-156.67-53.13-202.45-105.87-10.24-11.8-18.76-24.31-20.76-35.73-2-11.42,3.55-21.52,17-23.9,17.64-3.12,42.72,7.21,63.35,18.65,75.25,41.68,131.02,106.82,137.55,160.65,6.53,53.83-36.51,93.63-106.15,98.15-69.37,4.51-156.91-23.85-232.96-63.72-76.05-39.87-143.08-90.49-208.56-140.61"/>
  <path class="cls-1" d="m494.15,424.97c72.41,26.4,138.01,65.79,180.11,111.06,43.8,47.1,62.52,99.88,44.89,141.89-17.63,42.01-73.22,71.75-146.94,73.7-73.71,1.95-163.42-25.69-217.52-69.87-12.1-9.88-22.63-20.76-26.54-31.67-3.91-10.91-.17-21.81,12.69-26.44,16.86-6.07,43.32-.16,65.6,7.59,81.24,28.27,147.29,82.96,162.89,134.9,15.6,51.94-20.04,98.48-87.89,114.79-67.59,16.25-158.68,3.2-240.4-23.14s-156.4-64.82-229.44-103.06"/>
</svg>