<?xml version="1.0" encoding="UTF-8"?>
<svg id="Layer_1" data-name="Layer 1" xmlns="http://www.w3.org/2000/svg" viewBox="0 0 693.68 573.66">
  <defs>
    <style>
      .cls-1 {
        fill: none;
        stroke: #fff892;
        stroke-miterlimit: 10;
        stroke-width: 50px;
      }
    </style>
  </defs>
  <path class="cls-1" d="m24.41,14.44c16.58,74.98,48.94,147.7,101.36,203.81,52.42,56.11,126.18,94.26,202.97,95.05,76.78.78,154.9-39.24,191.48-106.76,22.74-41.97,27.94-96.06,2.83-136.67-25.11-40.61-84.78-59.4-123.79-31.88-24.23,17.1-35.94,46.56-45.94,74.48-21.77,60.77-41.67,123.25-44.08,187.75-2.41,64.5,14.55,132.07,58.44,179.4,38.48,41.48,94.71,63.93,151.12,68.2,56.42,4.27,113.08-8.44,165.81-28.95"/>
</svg>